HIERARCHY
ROOT Hips
{
	OFFSET 0.000000 97.167313 0.000000
	CHANNELS 6 Xposition Yposition Zposition Xrotation Yrotation Zrotation
	JOINT Spine
	{
		OFFSET 0.000000 13.784798 0.064400
		CHANNELS 3 Xrotation Yrotation Zrotation
		JOINT Spine1
		{
			OFFSET 0.000000 12.037903 0.404700
			CHANNELS 3 Xrotation Yrotation Zrotation
			JOINT Spine2
			{
				OFFSET 0.000000 17.795601 0.420200
				CHANNELS 3 Xrotation Yrotation Zrotation
				JOINT Neck
				{
					OFFSET 0.000000 39.131302 11.954600
					CHANNELS 3 Xrotation Yrotation Zrotation
					JOINT Head
					{
						OFFSET 0.000000 14.456192 15.627699
						CHANNELS 3 Xrotation Yrotation Zrotation
						JOINT HeadTop_End
						{
							OFFSET 0.000000 15.703506 7.603401
							CHANNELS 3 Xrotation Yrotation Zrotation
							End Site
							{
								OFFSET 0.000000 17.447403 0.000000
							}
						}
					}
				}
				JOINT LeftShoulder
				{
					OFFSET 17.399500 24.608795 1.168800
					CHANNELS 3 Xrotation Yrotation Zrotation
					JOINT LeftArm
					{
						OFFSET 18.980635 5.765305 1.818600
						CHANNELS 3 Xrotation Yrotation Zrotation
						JOINT LeftForeArm
						{
							OFFSET 49.290169 0.000000 0.000000
							CHANNELS 3 Xrotation Yrotation Zrotation
							JOINT LeftHand
							{
								OFFSET 31.562012 0.000000 0.000000
								CHANNELS 3 Xrotation Yrotation Zrotation
								JOINT LeftHandThumb1
								{
									OFFSET 6.133995 -4.388519 7.076070
									CHANNELS 3 Xrotation Yrotation Zrotation
									JOINT LeftHandThumb2
									{
										OFFSET 6.037666 -3.485840 3.485847
										CHANNELS 3 Xrotation Yrotation Zrotation
										JOINT LeftHandThumb3
										{
											OFFSET 6.496506 -3.750763 3.750761
											CHANNELS 3 Xrotation Yrotation Zrotation
											JOINT LeftHandThumb4
											{
												OFFSET 5.616882 -3.242905 3.242910
												CHANNELS 3 Xrotation Yrotation Zrotation
												End Site
												{
													OFFSET -1.254608 7.132141 0.375429
												}
											}
										}
									}
								}
								JOINT LeftHandPinky1
								{
									OFFSET 18.920792 -0.453171 -11.426712
									CHANNELS 3 Xrotation Yrotation Zrotation
									JOINT LeftHandPinky2
									{
										OFFSET 4.919586 0.000000 0.000000
										CHANNELS 3 Xrotation Yrotation Zrotation
										JOINT LeftHandPinky3
										{
											OFFSET 5.233047 0.000000 0.000000
											CHANNELS 3 Xrotation Yrotation Zrotation
											JOINT LeftHandPinky4
											{
												OFFSET 5.571716 0.000000 0.000000
												CHANNELS 3 Xrotation Yrotation Zrotation
												End Site
												{
													OFFSET -3.459808 4.342407 -0.466164
												}
											}
										}
									}
								}
								JOINT LeftHandRing1
								{
									OFFSET 22.726120 -0.094986 -6.500475
									CHANNELS 3 Xrotation Yrotation Zrotation
									JOINT LeftHandRing2
									{
										OFFSET 6.408615 0.000000 0.000000
										CHANNELS 3 Xrotation Yrotation Zrotation
										JOINT LeftHandRing3
										{
											OFFSET 6.150223 0.000000 0.000000
											CHANNELS 3 Xrotation Yrotation Zrotation
											JOINT LeftHandRing4
											{
												OFFSET 6.145386 0.000000 0.000000
												CHANNELS 3 Xrotation Yrotation Zrotation
												End Site
												{
													OFFSET -3.671402 4.923981 -0.202372
												}
											}
										}
									}
								}
								JOINT LeftHandMiddle1
								{
									OFFSET 23.373947 0.000000 0.000001
									CHANNELS 3 Xrotation Yrotation Zrotation
									JOINT LeftHandMiddle2
									{
										OFFSET 6.996567 0.000000 0.000000
										CHANNELS 3 Xrotation Yrotation Zrotation
										JOINT LeftHandMiddle3
										{
											OFFSET 7.015945 0.000000 0.000000
											CHANNELS 3 Xrotation Yrotation Zrotation
											JOINT LeftHandMiddle4
											{
												OFFSET 7.721573 0.000000 0.000000
												CHANNELS 3 Xrotation Yrotation Zrotation
												End Site
												{
													OFFSET -4.651108 6.158463 0.251582
												}
											}
										}
									}
								}
								JOINT LeftHandIndex1
								{
									OFFSET 21.310577 -0.490082 6.209344
									CHANNELS 3 Xrotation Yrotation Zrotation
									JOINT LeftHandIndex2
									{
										OFFSET 7.536453 0.000000 0.000000
										CHANNELS 3 Xrotation Yrotation Zrotation
										JOINT LeftHandIndex3
										{
											OFFSET 7.512344 0.000000 0.000000
											CHANNELS 3 Xrotation Yrotation Zrotation
											JOINT LeftHandIndex4
											{
												OFFSET 10.212402 0.000000 0.000001
												CHANNELS 3 Xrotation Yrotation Zrotation
												End Site
												{
													OFFSET -5.180801 8.690506 1.388433
												}
											}
										}
									}
								}
							}
						}
					}
				}
				JOINT RightShoulder
				{
					OFFSET -17.399500 24.608795 1.168800
					CHANNELS 3 Xrotation Yrotation Zrotation
					JOINT RightArm
					{
						OFFSET -18.980635 5.765305 1.818600
						CHANNELS 3 Xrotation Yrotation Zrotation
						JOINT RightForeArm
						{
							OFFSET -49.290169 0.000000 0.000000
							CHANNELS 3 Xrotation Yrotation Zrotation
							JOINT RightHand
							{
								OFFSET -31.562012 0.000000 0.000000
								CHANNELS 3 Xrotation Yrotation Zrotation
								JOINT RightHandThumb1
								{
									OFFSET -6.133995 -4.388519 7.076070
									CHANNELS 3 Xrotation Yrotation Zrotation
									JOINT RightHandThumb2
									{
										OFFSET -6.037666 -3.485840 3.485847
										CHANNELS 3 Xrotation Yrotation Zrotation
										JOINT RightHandThumb3
										{
											OFFSET -6.496506 -3.750763 3.750761
											CHANNELS 3 Xrotation Yrotation Zrotation
											JOINT RightHandThumb4
											{
												OFFSET -5.616882 -3.242905 3.242910
												CHANNELS 3 Xrotation Yrotation Zrotation
												End Site
												{
													OFFSET 1.254608 7.132141 0.375429
												}
											}
										}
									}
								}
								JOINT RightHandIndex1
								{
									OFFSET -21.310577 -0.490082 6.209344
									CHANNELS 3 Xrotation Yrotation Zrotation
									JOINT RightHandIndex2
									{
										OFFSET -7.536453 0.000000 0.000000
										CHANNELS 3 Xrotation Yrotation Zrotation
										JOINT RightHandIndex3
										{
											OFFSET -7.512344 0.000000 0.000000
											CHANNELS 3 Xrotation Yrotation Zrotation
											JOINT RightHandIndex4
											{
												OFFSET -10.212402 0.000000 0.000001
												CHANNELS 3 Xrotation Yrotation Zrotation
												End Site
												{
													OFFSET 5.180801 8.690506 1.388433
												}
											}
										}
									}
								}
								JOINT RightHandMiddle1
								{
									OFFSET -23.373947 0.000000 0.000001
									CHANNELS 3 Xrotation Yrotation Zrotation
									JOINT RightHandMiddle2
									{
										OFFSET -6.996567 0.000000 0.000000
										CHANNELS 3 Xrotation Yrotation Zrotation
										JOINT RightHandMiddle3
										{
											OFFSET -7.015945 0.000000 0.000000
											CHANNELS 3 Xrotation Yrotation Zrotation
											JOINT RightHandMiddle4
											{
												OFFSET -7.721573 0.000000 0.000000
												CHANNELS 3 Xrotation Yrotation Zrotation
												End Site
												{
													OFFSET 4.651108 6.158463 0.251582
												}
											}
										}
									}
								}
								JOINT RightHandRing1
								{
									OFFSET -22.726120 -0.094986 -6.500475
									CHANNELS 3 Xrotation Yrotation Zrotation
									JOINT RightHandRing2
									{
										OFFSET -6.408615 0.000000 0.000000
										CHANNELS 3 Xrotation Yrotation Zrotation
										JOINT RightHandRing3
										{
											OFFSET -6.150223 0.000000 0.000000
											CHANNELS 3 Xrotation Yrotation Zrotation
											JOINT RightHandRing4
											{
												OFFSET -6.145386 0.000000 0.000000
												CHANNELS 3 Xrotation Yrotation Zrotation
												End Site
												{
													OFFSET 3.671402 4.923981 -0.202372
												}
											}
										}
									}
								}
								JOINT RightHandPinky1
								{
									OFFSET -18.920792 -0.453171 -11.426712
									CHANNELS 3 Xrotation Yrotation Zrotation
									JOINT RightHandPinky2
									{
										OFFSET -4.919586 0.000000 0.000000
										CHANNELS 3 Xrotation Yrotation Zrotation
										JOINT RightHandPinky3
										{
											OFFSET -5.233047 0.000000 0.000000
											CHANNELS 3 Xrotation Yrotation Zrotation
											JOINT RightHandPinky4
											{
												OFFSET -5.571716 0.000000 0.000000
												CHANNELS 3 Xrotation Yrotation Zrotation
												End Site
												{
													OFFSET 3.459808 4.342407 -0.466164
												}
											}
										}
									}
								}
							}
						}
					}
				}
			}
		}
	}
	JOINT LeftUpLeg
	{
		OFFSET 19.899099 -7.885101 -3.429500
		CHANNELS 3 Xrotation Yrotation Zrotation
		JOINT LeftLeg
		{
			OFFSET 1.745560 -36.997807 10.304700
			CHANNELS 3 Xrotation Yrotation Zrotation
			JOINT LeftFoot
			{
				OFFSET -1.745558 -29.803308 -13.615400
				CHANNELS 3 Xrotation Yrotation Zrotation
				JOINT LeftToeBase
				{
					OFFSET 1.181900 -18.539904 15.226099
					CHANNELS 3 Xrotation Yrotation Zrotation
					JOINT LeftToe_End
					{
						OFFSET -0.863701 1.402801 16.534700
						CHANNELS 3 Xrotation Yrotation Zrotation
						End Site
						{
							OFFSET 0.000000 16.616566 0.000000
						}
					}
				}
			}
		}
	}
	JOINT RightUpLeg
	{
		OFFSET -19.899099 -7.885101 -3.429500
		CHANNELS 3 Xrotation Yrotation Zrotation
		JOINT RightLeg
		{
			OFFSET -1.745560 -36.997807 10.304700
			CHANNELS 3 Xrotation Yrotation Zrotation
			JOINT RightFoot
			{
				OFFSET 1.745558 -29.803308 -13.615400
				CHANNELS 3 Xrotation Yrotation Zrotation
				JOINT RightToeBase
				{
					OFFSET -1.181900 -18.539904 15.226099
					CHANNELS 3 Xrotation Yrotation Zrotation
					JOINT RightToe_End
					{
						OFFSET 0.863701 1.402801 16.534700
						CHANNELS 3 Xrotation Yrotation Zrotation
						End Site
						{
							OFFSET 0.000000 16.616566 0.000000
						}
					}
				}
			}
		}
	}
}
MOTION
Frames: 4
Frame Time: 0.033333
2.714133 115.250565 12.262474 -88.754511 1.300270 4.009344 0.900300 -2.622525 -0.090442 3.023030 -0.844335 0.433009 0.701668 -1.357575 0.435174 -11.441123 -2.241966 -2.266606 6.694150 -14.201698 7.251520 -0.000000 -0.000003 0.000001 0.528400 -4.565251 -15.818119 38.217425 -16.813627 -41.307174 0.000024 -56.205265 0.000018 64.407933 -28.007460 -21.546892 8.160384 -4.255429 12.807340 6.350248 15.365482 1.608777 -5.849676 9.939058 15.732221 0.000002 -0.000002 -0.000002 0.343280 10.250425 -10.228996 0.508312 2.388837 -24.022175 0.520473 2.415889 -24.311990 -0.000003 -0.000003 -0.000003 1.171462 6.923944 -16.449249 0.521823 2.418868 -24.344039 0.519422 2.413572 -24.287210 -0.000007 -0.000004 0.000005 0.367433 4.561785 -10.193540 0.520364 2.415671 -24.309538 0.520116 2.415130 -24.303823 -0.000003 -0.000005 0.000008 0.067281 2.556953 -1.918919 0.864055 3.064056 -31.490092 0.156759 1.347568 -13.270637 -0.000001 0.000001 -0.000001 0.560558 3.736152 20.776361 26.998655 18.806137 30.283863 0.000029 45.060954 -0.000017 21.193358 10.331237 16.091926 -13.121355 7.811718 -0.086863 7.918280 -27.751646 -3.100765 -2.785691 -37.960696 -21.297276 0.000006 0.000002 0.000004 1.873300 13.187218 33.045978 0.581752 -2.255839 28.918246 0.187622 -1.309951 16.302207 -0.000000 -0.000003 -0.000001 -3.155464 -0.910582 44.527311 0.622490 -2.327976 29.936610 0.348819 -1.770099 22.294327 -0.000001 0.000001 -0.000001 -0.772482 -3.729883 49.510149 0.319015 -1.695647 21.309085 0.311696 -1.676749 21.059968 0.000000 0.000002 -0.000003 1.581458 -5.732706 47.824008 0.399980 -1.889980 23.895852 0.399979 -1.889996 23.895835 -0.000000 0.000001 0.000002 -22.676168 14.869407 25.351692 19.156386 6.519525 -2.965294 26.771649 -0.861439 -21.687854 4.045684 0.000011 0.000005 0.000002 0.000003 -0.000001 -20.745648 -13.140597 -20.426543 20.392080 -6.267329 -1.109488 36.816246 -5.316399 24.059053 -2.379045 -0.000011 0.000009 -0.000000 0.000001 0.000002 
2.564258 115.967384 12.684143 -88.595367 1.517304 4.570022 0.732476 -2.535477 0.512083 2.455220 -1.323391 0.376165 0.427562 -1.790696 0.525038 -12.536363 -0.506718 -4.587679 8.148049 -9.467423 2.194807 0.000000 0.000001 -0.000000 0.397948 -6.100495 -17.882084 45.496887 -17.095313 -39.190731 0.000017 -53.995371 0.000010 59.801981 -28.404325 -11.154579 8.181570 -4.187604 12.839557 6.305037 15.034752 1.577921 -5.893432 9.582520 15.646942 0.000003 -0.000001 0.000002 0.336087 10.232755 -9.782553 0.454948 2.265410 -22.707881 0.465788 2.291117 -22.980469 0.000000 -0.000003 -0.000003 1.169956 6.948271 -16.289089 0.466937 2.293818 -23.009171 0.464872 2.288995 -22.957922 0.000002 -0.000002 -0.000002 0.364063 4.571051 -9.953668 0.465702 2.290892 -22.978356 0.465482 2.290416 -22.972978 -0.000001 -0.000003 0.000004 0.066646 2.536457 -1.719085 0.774612 2.913240 -29.774714 0.146541 1.303458 -12.828607 -0.000003 0.000001 0.000001 0.428602 4.868132 22.501691 29.766279 15.446200 28.786997 0.000018 48.034217 -0.000001 20.391035 9.743910 17.375977 -13.119335 7.813038 -0.089625 7.918298 -27.751660 -3.100759 -2.785675 -37.960696 -21.297264 -0.000000 -0.000005 0.000001 1.869029 13.193632 32.953416 0.567128 -2.229186 28.544406 0.187986 -1.311121 16.317377 0.000003 -0.000001 -0.000001 -3.135326 -0.862826 44.107319 0.607132 -2.301149 29.556664 0.346073 -1.763398 22.205386 -0.000001 -0.000001 -0.000004 -0.777355 -3.682520 48.929966 0.308070 -1.667302 20.935768 0.300861 -1.648348 20.686476 -0.000000 0.000002 0.000002 1.542151 -5.696844 47.168938 0.384912 -1.855660 23.435405 0.384928 -1.855675 23.435412 -0.000000 -0.000001 0.000000 -22.053081 14.911715 24.571257 15.545830 6.508035 -2.924137 30.826624 -3.723297 -23.188328 3.564330 -0.000017 0.000022 -0.000001 0.000001 -0.000001 -20.297543 -14.153392 -22.407680 17.502507 -6.529437 -1.097358 37.907014 -2.400556 26.882170 -1.784016 0.000018 -0.000003 -0.000003 -0.000001 0.000001 
2.626550 116.811188 11.729263 -87.268022 2.957952 4.351415 0.555036 -3.812160 1.059886 1.008096 -1.449131 0.839930 -1.038077 -1.880990 0.794074 -11.650392 0.535165 -5.779008 12.318362 -6.301667 -2.002382 -0.000000 -0.000000 0.000000 0.177517 -8.627005 -18.713263 42.182459 -11.316544 -47.984370 0.000030 -51.215122 0.000009 63.201298 -33.406903 -7.796295 8.187151 -4.184470 12.858478 6.305263 15.036361 1.578049 -5.893014 9.585860 15.647736 -0.000001 0.000001 -0.000003 0.345717 10.258022 -9.782674 0.423315 2.188339 -21.893782 0.433157 2.212677 -22.150276 -0.000000 -0.000001 -0.000002 1.181103 6.983681 -16.299538 0.434176 2.215155 -22.176309 0.432381 2.210712 -22.129710 -0.000002 -0.000001 0.000005 0.370192 4.600928 -9.990723 0.433096 2.212499 -22.148613 0.432899 2.212015 -22.143386 -0.000002 -0.000001 0.000006 0.066856 2.543006 -1.782951 0.715329 2.807182 -28.586705 0.146560 1.303553 -12.829594 -0.000001 0.000006 0.000002 0.333616 5.768435 22.192449 26.744924 6.230306 34.208903 0.000032 52.123113 -0.000030 25.726707 8.054021 24.811956 -13.116672 7.814687 -0.092719 7.918294 -27.751648 -3.100762 -2.785679 -37.960702 -21.297262 0.000001 0.000000 0.000003 1.863927 13.201309 32.842428 0.549809 -2.197066 28.096058 0.188122 -1.311650 16.323853 -0.000000 -0.000001 -0.000001 -3.118205 -0.798145 43.604515 0.588962 -2.268841 29.100994 0.342804 -1.755343 22.098741 -0.000001 0.000004 -0.000004 -0.787273 -3.621707 48.234471 0.295173 -1.633224 20.487987 0.288126 -1.614179 20.238515 -0.000002 -0.000002 -0.000002 1.495552 -5.653255 46.383299 0.367237 -1.814350 22.883174 0.367226 -1.814328 22.883186 0.000001 0.000001 -0.000001 -20.128718 11.843551 22.854257 13.296941 5.485229 -0.789606 33.945596 0.878181 -24.977631 2.601922 -0.000005 0.000002 -0.000001 0.000003 -0.000001 -16.103750 -14.593633 -20.932805 12.713404 -4.285957 -3.874395 38.940667 -8.149059 34.458236 -1.755012 -0.000000 -0.000003 -0.000003 -0.000002 0.000001 
2.368283 117.471954 10.149513 -87.266458 2.880745 5.670508 -0.329181 -6.061224 -1.388402 -0.014529 -1.563530 0.587795 -2.321648 -1.978575 0.879404 -9.848445 0.725050 -5.554363 17.251132 -4.414300 -3.446169 -0.000000 -0.000001 -0.000000 0.079452 -11.306523 -17.036592 42.639461 -3.973959 -57.559022 0.000044 -53.431398 0.000031 58.660513 -34.655140 -13.526876 8.189295 -4.184161 12.882682 6.305677 15.039231 1.578312 -5.891476 9.598450 15.650777 -0.000001 -0.000000 0.000002 0.356847 10.278727 -9.784792 0.397789 2.123730 -21.215095 0.406826 2.146936 -21.458187 0.000002 -0.000001 -0.000006 1.192920 7.019256 -16.320985 0.407730 2.149174 -21.481975 0.406136 2.145109 -21.439231 -0.000001 0.000002 0.000005 0.377039 4.630544 -10.061059 0.406782 2.146787 -21.456862 0.406601 2.146308 -21.451783 0.000001 -0.000002 -0.000003 0.067222 2.554974 -1.899939 0.667601 2.717881 -27.596394 0.146593 1.303704 -12.831032 0.000001 0.000003 0.000004 0.265587 7.445944 18.881121 18.728413 2.113757 43.499559 0.000014 45.917156 -0.000009 31.610259 11.589793 27.734277 -13.113177 7.816700 -0.096184 7.918280 -27.751644 -3.100759 -2.785689 -37.960699 -21.297276 -0.000001 0.000001 0.000003 1.857925 13.210374 32.711289 0.529683 -2.158969 27.566384 0.188187 -1.311801 16.326013 -0.000000 0.000001 -0.000003 -3.102263 -0.716694 43.011187 0.567831 -2.230477 28.562704 0.338948 -1.745841 21.972729 -0.000000 0.000003 -0.000004 -0.802476 -3.545848 47.413319 0.280285 -1.592831 19.959064 0.273404 -1.573690 19.709344 -0.000002 0.000001 -0.000003 1.441306 -5.600994 45.455329 0.346872 -1.765307 22.230828 0.346862 -1.765324 22.230835 0.000002 0.000002 0.000001 -13.771128 10.159780 19.820253 10.510730 5.529590 1.780456 35.479127 7.524798 -28.105021 1.906030 0.000004 -0.000015 0.000001 0.000003 -0.000003 -14.689963 -15.284251 -21.715598 12.368720 -5.695853 -6.502792 40.985803 -13.059930 35.398500 -0.660050 -0.000011 0.000022 -0.000000 0.000002 -0.000003 
